General
Unique ID                      : 286888942121261744080738950945871393664 (0xD7D4CCE9465B646D0571E4C1F85A7380)
Format                         : Matroska
Format version                 : Version 4
File size                      : 795 MiB
Duration                       : 1 h 12 min
Overall bit rate               : 1 540 kb/s
Movie name                     : A FAIRY TALE AFTER ALL (2022) 720p WebRip x264 AAC 2.0 ESubs [GalaxyRG]
Encoded date                   : UTC 2022-02-25 06:59:39
Writing application            : mkvmerge v65.0.0 ('Too Much') 64-bit
Writing library                : libebml v1.4.2 + libmatroska v1.6.4 / Lavf58.20.100
Comment                        : GalaxyRG - A.Fairy.Tale.After.All.2022.720p.WEBRip.800MB.x264-GalaxyRG

Video
ID                             : 1
Format                         : AVC
Format/Info                    : Advanced Video Codec
Format profile                 : High@L3.1
Format settings                : CABAC / 4 Ref Frames
Format settings, CABAC         : Yes
Format settings, Reference fra : 4 frames
Codec ID                       : V_MPEG4/ISO/AVC
Duration                       : 1 h 12 min
Bit rate                       : 1 442 kb/s
Width                          : 1 280 pixels
Height                         : 532 pixels
Display aspect ratio           : 2.40:1
Frame rate mode                : Constant
Frame rate                     : 23.976 FPS
Color space                    : YUV
Chroma subsampling             : 4:2:0
Bit depth                      : 8 bits
Scan type                      : Progressive
Bits/(Pixel*Frame)             : 0.088
Stream size                    : 745 MiB (94%)
Title                          : GalaxyRG - A.Fairy.Tale.After.All.2022.720p.WEBRip.800MB.x264-GalaxyRG
Writing library                : x264 core 157
Encoding settings              : cabac=1 / ref=2 / deblock=1:0:0 / analyse=0x3:0x113 / me=hex / subme=4 / psy=1 / psy_rd=1.00:0.00 / mixed_ref=0 / me_range=16 / chroma_me=1 / trellis=1 / 8x8dct=1 / cqm=0 / deadzone=21,11 / fast_pskip=1 / chroma_qp_offset=0 / threads=17 / lookahead_threads=4 / sliced_threads=0 / nr=0 / decimate=1 / interlaced=0 / bluray_compat=0 / constrained_intra=0 / bframes=3 / b_pyramid=2 / b_adapt=1 / b_bias=0 / direct=1 / weightb=1 / open_gop=0 / weightp=1 / keyint=250 / keyint_min=23 / scenecut=40 / intra_refresh=0 / rc_lookahead=20 / rc=2pass / mbtree=1 / bitrate=1442 / ratetol=1.0 / qcomp=0.60 / qpmin=0 / qpmax=69 / qpstep=4 / cplxblur=20.0 / qblur=0.5 / ip_ratio=1.40 / aq=1:1.00
Default                        : Yes
Forced                         : No

Audio
ID                             : 2
Format                         : AAC LC
Format/Info                    : Advanced Audio Codec Low Complexity
Codec ID                       : A_AAC-2
Duration                       : 1 h 12 min
Bit rate                       : 96.0 kb/s
Channel(s)                     : 2 channels
Channel layout                 : L R
Sampling rate                  : 48.0 kHz
Frame rate                     : 46.875 FPS (1024 SPF)
Compression mode               : Lossy
Stream size                    : 49.6 MiB (6%)
Title                          : GalaxyRG - A.Fairy.Tale.After.All.2022.720p.WEBRip.800MB.x264-GalaxyRG
Writing library                : Lavc58.35.100 libfdk_aac
Language                       : English
Default                        : No
Forced                         : No

Text
ID                             : 3
Format                         : UTF-8
Codec ID                       : S_TEXT/UTF8
Codec ID/Info                  : UTF-8 Plain Text
Duration                       : 1 h 12 min
Bit rate                       : 67 b/s
Count of elements              : 1164
Stream size                    : 35.7 KiB (0%)
Title                          : jhoemzskie®
Language                       : English
Default                        : Yes
Forced                         : No

